<svg width="24" height="24" viewBox="0 0 24 24" fill="none" xmlns="http://www.w3.org/2000/svg">
<path d="M5.70116 22.084L5.70116 22.084L5.69797 22.083C5.598 22.0519 5.4932 21.9282 5.5003 21.7565C5.7336 18.8673 8.54011 16.5 11.9992 16.5C15.4602 16.5 18.2598 18.8598 18.4988 21.7644C18.5119 21.9327 18.4184 22.0474 18.3044 22.0818L18.3044 22.0817L18.2973 22.084C17.4173 22.3636 16.3549 22.5 15.0463 22.5H8.95225C7.64357 22.5 6.58121 22.3636 5.70116 22.084ZM6.15278 21.0619L6.01966 21.5708L6.53475 21.6779C7.24804 21.8262 8.04569 21.8921 8.95225 21.8921H15.0463C15.9528 21.8921 16.7505 21.8262 17.4638 21.6779L17.9788 21.5708L17.8457 21.0619C17.2365 18.7327 14.7694 17.1079 11.9992 17.1079C9.22912 17.1079 6.76198 18.7327 6.15278 21.0619Z" stroke-width="2"/>
<path d="M15 2H9C4 2 2 4 2 9V15C2 18.78 3.14 20.85 5.86 21.62C6.08 19.02 8.75 16.97 12 16.97C15.25 16.97 17.92 19.02 18.14 21.62C20.86 20.85 22 18.78 22 15V9C22 4 20 2 15 2ZM12 14.17C10.02 14.17 8.42 12.56 8.42 10.58C8.42 8.60002 10.02 7 12 7C13.98 7 15.58 8.60002 15.58 10.58C15.58 12.56 13.98 14.17 12 14.17Z" stroke-width="2" stroke-linecap="round" stroke-linejoin="round"/>
<path d="M11.9999 14.42C9.88757 14.42 8.16992 12.6954 8.16992 10.58C8.16992 8.46616 9.88607 6.75 11.9999 6.75C14.1138 6.75 15.8299 8.46616 15.8299 10.58C15.8299 12.6954 14.1123 14.42 11.9999 14.42ZM11.9999 7.25C10.1638 7.25 8.66992 8.74388 8.66992 10.58C8.66992 12.425 10.1626 13.92 11.9999 13.92C13.8372 13.92 15.3299 12.425 15.3299 10.58C15.3299 8.74388 13.836 7.25 11.9999 7.25Z" stroke-width="2"/>
</svg>
