<svg width="24" height="24" viewBox="0 0 24 24" fill="none" xmlns="http://www.w3.org/2000/svg">
<path d="M10.6975 21.7108L10.6975 21.7108L10.6936 21.7069L9.17356 20.1869L8.82001 20.5404L9.17356 20.1868C9.0437 20.057 8.86118 19.9642 8.72588 19.9083C8.59146 19.8528 8.39876 19.7904 8.22 19.7904H6.06C5.03617 19.7904 4.20999 18.9642 4.20999 17.9403V15.7804C4.20999 15.6016 4.14764 15.4089 4.09212 15.2745C4.03624 15.1392 3.94341 14.9567 3.81354 14.8268L2.29355 13.3069L1.94176 13.6586L2.29355 13.3069C1.94578 12.9591 1.75 12.4955 1.75 12.0003C1.75 11.5002 1.93904 11.0405 2.28956 10.6978L2.28958 10.6978L2.29356 10.6939L3.81354 9.17384C3.81354 9.17384 3.81355 9.17383 3.81355 9.17383C3.9434 9.04398 4.03623 8.86147 4.09212 8.72618C4.14764 8.59176 4.20999 8.39906 4.20999 8.2203V6.06039C4.20999 5.03651 5.03617 4.21029 6.06 4.21029H8.22C8.39876 4.21029 8.59146 4.14795 8.72588 4.09243C8.86118 4.03654 9.0437 3.94371 9.17356 3.81385L9.17357 3.81384L10.6936 2.29382C11.3783 1.60909 12.6217 1.60909 13.3064 2.29383L14.8264 3.81384L15.1749 3.46542L14.8264 3.81385C14.9563 3.94371 15.1388 4.03654 15.2741 4.09242C15.4085 4.14795 15.6012 4.21029 15.78 4.21029H17.94C18.9638 4.21029 19.79 5.03651 19.79 6.06039V8.2203C19.79 8.39906 19.8524 8.59176 19.9079 8.72618C19.9638 8.86148 20.0566 9.04398 20.1864 9.17384L21.7064 10.6939C22.0542 11.0416 22.25 11.5051 22.25 12.0003C22.25 12.5004 22.0609 12.9602 21.7104 13.3029L21.7104 13.3029L21.7064 13.3069L20.1864 14.8269C20.0566 14.9567 19.9638 15.1392 19.9079 15.2745C19.8523 15.4089 19.79 15.6016 19.79 15.7804V17.9403C19.79 18.9642 18.9638 19.7904 17.94 19.7904H15.78C15.6012 19.7904 15.4085 19.8528 15.2741 19.9083C15.1388 19.9642 14.9563 20.057 14.8264 20.1868L13.3064 21.7069L13.3064 21.7068L13.3025 21.7108C12.9598 22.0613 12.5001 22.2503 12 22.2503C11.4999 22.2503 11.0402 22.0613 10.6975 21.7108ZM19.8336 9.5268L19.48 9.88034L19.8336 9.52679C19.5269 9.22011 19.29 8.64706 19.29 8.2203V6.06039C19.29 5.31433 18.6862 4.71029 17.94 4.71029H15.78C15.3532 4.71029 14.7802 4.47346 14.4736 4.1668L12.9536 2.64678L12.6 3.00033L12.9536 2.64678C12.4383 2.13152 11.5617 2.13152 11.0464 2.64678L11.4 3.00033L11.0464 2.64678L9.52644 4.1668L9.88 4.52035L9.52644 4.1668C9.21979 4.47346 8.64679 4.71029 8.22 4.71029H6.06C5.31379 4.71029 4.70999 5.31432 4.70999 6.06039V8.2203C4.70999 8.64706 4.47312 9.22011 4.16644 9.52679L4.16643 9.5268L2.64645 11.0469C2.39515 11.2982 2.25 11.6342 2.25 12.0003C2.25 12.3663 2.3951 12.7025 2.64645 12.9539L4.16644 14.4739L4.51999 14.1203L4.16644 14.4739C4.47311 14.7805 4.70999 15.3536 4.70999 15.7804V17.9403C4.70999 18.6864 5.31379 19.2904 6.06 19.2904H8.22C8.64681 19.2904 9.21981 19.5272 9.52644 19.8339L9.88 19.4803L9.52645 19.8339L11.0464 21.3539C11.5617 21.8691 12.4383 21.8691 12.9536 21.3539L14.4736 19.8339C14.7802 19.5272 15.3532 19.2904 15.78 19.2904H17.94C18.6862 19.2904 19.29 18.6864 19.29 17.9403V15.7804C19.29 15.3536 19.5269 14.7805 19.8336 14.4739L21.3536 12.9539C21.6049 12.7025 21.75 12.3663 21.75 12.0003C21.75 11.6342 21.6049 11.2982 21.3536 11.0469L19.8336 9.5268Z"/>
<path d="M15.0002 15.5C14.7131 15.5 14.4902 15.2706 14.4902 15C14.4902 14.7261 14.7163 14.5 14.9902 14.5C15.264 14.5 15.4902 14.7261 15.4902 15C15.4902 15.2804 15.2675 15.5 15.0002 15.5Z"/>
<path d="M9.01001 9.5C8.7229 9.5 8.5 9.27062 8.5 9C8.5 8.72614 8.72614 8.5 9 8.5C9.27386 8.5 9.5 8.72614 9.5 9C9.5 9.28043 9.27734 9.5 9.01001 9.5Z"/>
<path d="M9.1759 15.1759L9.52945 15.5295L9.1759 15.176C9.12461 15.2272 9.064 15.2495 8.99945 15.2495C8.93491 15.2495 8.8743 15.2272 8.82301 15.176C8.72827 15.0812 8.72827 14.9178 8.82301 14.8231L14.8231 8.82301C14.9178 8.72827 15.0812 8.72827 15.176 8.82301C15.2707 8.91774 15.2707 9.08122 15.176 9.17596L9.1759 15.1759Z"/>
</svg>
