<svg width="24" height="24" viewBox="0 0 24 24" fill="none" xmlns="http://www.w3.org/2000/svg">
<path d="M15 22.25H9C6.3424 22.25 4.56492 21.6803 3.4423 20.5577C2.31968 19.4351 1.75 17.6576 1.75 15V9C1.75 6.3424 2.31968 4.56492 3.4423 3.4423C4.56492 2.31968 6.3424 1.75 9 1.75H15C17.6576 1.75 19.4351 2.31968 20.5577 3.4423C21.6803 4.56492 22.25 6.3424 22.25 9V15C22.25 17.6576 21.6803 19.4351 20.5577 20.5577C19.4351 21.6803 17.6576 22.25 15 22.25ZM9 2.25C6.65972 2.25 4.92432 2.66107 3.7927 3.7927C2.66107 4.92432 2.25 6.65972 2.25 9V15C2.25 17.3403 2.66107 19.0757 3.7927 20.2073C4.92432 21.3389 6.65972 21.75 9 21.75H15C17.3403 21.75 19.0757 21.3389 20.2073 20.2073C21.3389 19.0757 21.75 17.3403 21.75 15V9C21.75 6.65972 21.3389 4.92432 20.2073 3.7927C19.0757 2.66107 17.3403 2.25 15 2.25H9Z"/>
<path d="M11.8725 12.5478L11.8706 12.5467L6.57255 9.48781C6.57231 9.48767 6.57207 9.48753 6.57183 9.48739C6.44767 9.41445 6.41595 9.26259 6.47934 9.15695L6.47937 9.15697L6.48248 9.15164C6.55524 9.0269 6.7075 8.99492 6.81337 9.05845L6.81334 9.0585L6.81999 9.06235L11.74 11.9124L11.9905 12.0575L12.2411 11.9125L17.1311 9.08246L17.1325 9.08159C17.2507 9.01265 17.4033 9.05725 17.4665 9.16777C17.5343 9.28644 17.4844 9.44735 17.3825 9.50557L17.3804 9.5068L12.1269 12.5431C12.0772 12.5693 12.0308 12.5797 12.0006 12.5797C11.9489 12.5797 11.9077 12.5683 11.8725 12.5478Z"/>
<path d="M12 18.0201C11.8661 18.0201 11.75 17.904 11.75 17.7701V12.3301C11.75 12.1963 11.8661 12.0801 12 12.0801C12.1339 12.0801 12.25 12.1963 12.25 12.3301V17.7701C12.25 17.904 12.1339 18.0201 12 18.0201Z"/>
<path d="M7.43331 16.1529L7.43191 16.1521C7.04677 15.9395 6.68157 15.5621 6.41179 15.101C6.14211 14.6402 5.99023 14.134 5.99023 13.6898V10.2998C5.99023 9.86275 6.14331 9.35942 6.41509 8.89684C6.68631 8.43523 7.05251 8.0538 7.43544 7.83557L10.6327 6.05711C10.6328 6.05704 10.633 6.05698 10.6331 6.05691C11.4022 5.63076 12.5984 5.63077 13.3675 6.05693C13.3676 6.05699 13.3677 6.05705 13.3678 6.05711L16.5671 7.83676L16.5685 7.83753C16.9537 8.05016 17.3189 8.42754 17.5887 8.88859C17.8584 9.34947 18.0103 9.85567 18.0103 10.2998V13.6898C18.0103 14.1269 17.8572 14.6302 17.5854 15.0928C17.3142 15.5544 16.9479 15.9358 16.565 16.1541L13.3672 17.9329L13.3671 17.9328L13.3642 17.9345C12.9971 18.142 12.5172 18.2498 12.0002 18.2498C11.4909 18.2498 11.0065 18.1351 10.6311 17.9316L7.43331 16.1529ZM12.0002 6.2498C11.6238 6.2498 11.2086 6.31604 10.8758 6.50359L7.67896 8.28189C7.67865 8.28206 7.67833 8.28223 7.67802 8.28241C7.32869 8.47521 7.03898 8.81235 6.84002 9.15217C6.64086 9.49233 6.49023 9.90756 6.49023 10.2998V13.6898C6.49023 14.0863 6.64034 14.5016 6.84049 14.842C7.04033 15.1819 7.33012 15.5152 7.67791 15.7071C7.67826 15.7073 7.67861 15.7075 7.67896 15.7077L10.8742 17.4851C10.8747 17.4854 10.8752 17.4857 10.8758 17.486C11.2051 17.6716 11.623 17.7448 12.0002 17.7448C12.3774 17.7448 12.7953 17.6716 13.1246 17.486C13.1252 17.4857 13.1257 17.4854 13.1262 17.4851L16.3215 15.7077C16.3219 15.7075 16.3222 15.7073 16.3226 15.7071C16.6718 15.5143 16.9615 15.1772 17.1605 14.8375C17.3596 14.4973 17.5103 14.0821 17.5103 13.6898V10.2998C17.5103 9.90327 17.3602 9.48798 17.16 9.1476C16.9601 8.80771 16.6703 8.47439 16.3225 8.28241C16.3221 8.28224 16.3218 8.28206 16.3215 8.28189L13.1262 6.50452C13.1257 6.50421 13.1251 6.5039 13.1246 6.50359C12.7918 6.31604 12.3766 6.2498 12.0002 6.2498Z"/>
</svg>
