<svg width="44" height="44" viewBox="0 0 44 44" fill="none" xmlns="http://www.w3.org/2000/svg">
<path d="M21.9999 44C20.6335 44 19.2467 43.6897 18.1658 43.0483L6.94905 36.4899C2.38073 33.3659 2.09521 32.8901 2.09521 27.9868V16.0287C2.09521 11.1254 2.36034 10.6496 6.84708 7.56695L18.1454 0.946515C20.2868 -0.315505 23.6519 -0.315505 25.7933 0.946515L37.0509 7.52557C41.6192 10.6496 41.9047 11.1254 41.9047 16.0287V27.9661C41.9047 32.8694 41.6396 33.3452 37.1529 36.4279L25.8545 43.0483C24.7532 43.6897 23.3664 44 21.9999 44Z" fill="white"/>
<path d="M22 40C20.833 40 19.6485 39.7461 18.7254 39.2213L9.1455 33.8554C5.24385 31.2994 5 30.9101 5 26.8983V17.1144C5 13.1026 5.22643 12.7133 9.05841 10.1911L18.708 4.77442C20.5369 3.74186 23.4108 3.74186 25.2397 4.77442L34.8545 10.1573C38.7561 12.7133 39 13.1026 39 17.1144V26.8814C39 30.8931 38.7736 31.2825 34.9416 33.8046L25.292 39.2213C24.3514 39.7461 23.167 40 22 40ZM22 6.55178C21.2684 6.55178 20.5543 6.6872 20.0492 6.97496L10.4693 12.3578C7.63013 14.2198 7.63013 14.2198 7.63013 17.1144V26.8814C7.63013 29.7759 7.63013 29.7759 10.5389 31.6887L20.0492 37.0208C21.0768 37.5963 22.9406 37.5963 23.9682 37.0208L33.5481 31.6379C36.3699 29.7759 36.3699 29.7759 36.3699 26.8814V17.1144C36.3699 14.2198 36.3699 14.2198 33.4611 12.307L23.9508 6.97496C23.4457 6.6872 22.7315 6.55178 22 6.55178Z" fill="black"/>
<path d="M22.5 29C18.912 29 16 26.088 16 22.5C16 18.912 18.912 16 22.5 16C26.088 16 29 18.912 29 22.5C29 26.088 26.088 29 22.5 29ZM22.5 18.6C20.3507 18.6 18.6 20.3507 18.6 22.5C18.6 24.6493 20.3507 26.4 22.5 26.4C24.6493 26.4 26.4 24.6493 26.4 22.5C26.4 20.3507 24.6493 18.6 22.5 18.6Z" fill="black"/>
</svg>
