<?xml version="1.0" encoding="utf-8"?><svg viewBox="0 0 37 37" xmlns="http://www.w3.org/2000/svg" xmlns:xlink="http://www.w3.org/1999/xlink"><style>:root>svg{display:none}:root>svg:target{display:block}</style><svg fill="none" viewBox="0 0 16 16" id="icon-arrow" xmlns="http://www.w3.org/2000/svg"><path d="m6 12 4-4-4-4"/></svg><svg viewBox="0 0 32 32" id="icon-close" xmlns="http://www.w3.org/2000/svg"><path fill="#5685ff" d="m25.333 8.546-1.88-1.88L16 14.119 8.547 6.666l-1.88 1.88 7.453 7.453-7.453 7.453 1.88 1.88L16 17.879l7.453 7.453 1.88-1.88-7.453-7.453 7.453-7.453z"/></svg><svg fill="none" viewBox="0 0 24 24" id="icon-customers" xmlns="http://www.w3.org/2000/svg"><path d="M5.795 21.861h-.003a.267.267 0 0 1-.182-.268C5.837 18.94 8.574 16.72 12 16.72c3.429 0 6.16 2.212 6.392 4.882a.238.238 0 0 1-.179.257l-.007.002c-.868.261-1.916.389-3.205.389H9c-1.29 0-2.338-.128-3.206-.389Zm.444-.934-.144.52.529.103c.7.138 1.485.2 2.377.2h6c.891 0 1.675-.062 2.376-.2l.529-.104-.143-.52c-.608-2.2-3.051-3.706-5.762-3.706-2.712 0-5.155 1.506-5.762 3.707Z"/><path d="M15 2H9C4 2 2 4 2 9v6c0 3.78 1.14 5.85 3.86 6.62.22-2.6 2.89-4.65 6.14-4.65 3.25 0 5.92 2.05 6.14 4.65C20.86 20.85 22 18.78 22 15V9c0-5-2-7-7-7Zm-3 12.17c-1.98 0-3.58-1.61-3.58-3.59C8.42 8.6 10.02 7 12 7s3.58 1.6 3.58 3.58-1.6 3.59-3.58 3.59Z"/><path d="M12 14.42a3.84 3.84 0 0 1-3.83-3.84A3.832 3.832 0 0 1 12 6.75a3.832 3.832 0 0 1 3.83 3.83A3.84 3.84 0 0 1 12 14.42Zm0-7.17a3.336 3.336 0 0 0 0 6.67 3.336 3.336 0 0 0 0-6.67Z"/></svg><svg fill="none" viewBox="0 0 24 24" id="icon-dashboard" xmlns="http://www.w3.org/2000/svg"><path d="M9 22h6c5 0 7-2 7-7V9c0-5-2-7-7-7H9C4 2 2 4 2 9v6c0 5 2 7 7 7Z"/><path d="M16.28 13.61a4.147 4.147 0 0 1-4.18 1.03l-2.59 2.58c-.18.19-.55.31-.82.27l-1.2-.16c-.4-.05-.76-.43-.82-.82l-.16-1.2c-.04-.26.09-.63.27-.82l2.58-2.58c-.44-1.43-.1-3.05 1.03-4.18 1.62-1.62 4.26-1.62 5.89 0 1.62 1.61 1.62 4.25 0 5.88ZM10.45 16.28l-.85-.86M13.395 10.7h.008"/></svg><svg fill="none" viewBox="0 0 24 24" id="icon-help" xmlns="http://www.w3.org/2000/svg"><path d="m7.407 21.67-.004-.003a1.24 1.24 0 0 1-.653-1.097v-1.871l-.449-.046c-1.397-.144-2.527-.724-3.308-1.612-.782-.889-1.243-2.117-1.243-3.601v-6c0-1.606.537-2.91 1.439-3.812C4.09 2.727 5.395 2.19 7 2.19h10c1.605 0 2.91.537 3.811 1.438.902.902 1.439 2.206 1.439 3.812v6c0 1.605-.537 2.91-1.439 3.811-.901.902-2.206 1.439-3.811 1.439h-3.921l-.126.084-4.257 2.838h-.002a1.263 1.263 0 0 1-1.287.057Zm.216-.461a.742.742 0 0 0 .785-.017l.009-.006 4.45-2.96c.045-.03.1-.046.143-.046h4c1.4 0 2.597-.455 3.446-1.304.849-.849 1.304-2.046 1.304-3.446v-6c0-1.4-.455-2.597-1.304-3.446-.849-.849-2.046-1.304-3.446-1.304H7c-1.4 0-2.597.455-3.446 1.304C2.705 4.833 2.25 6.03 2.25 7.43v6c0 1.4.455 2.597 1.304 3.446C4.403 17.725 5.6 18.18 7 18.18c.134 0 .25.116.25.25v2.13c0 .393.266.585.373.649Z"/><path d="M12 11.61a.256.256 0 0 1-.25-.25v-.21c0-.877.627-1.314.951-1.537.199-.134.38-.279.509-.458.144-.201.2-.413.2-.635 0-.776-.634-1.41-1.41-1.41-.776 0-1.41.634-1.41 1.41 0 .134-.116.25-.25.25a.256.256 0 0 1-.25-.25c0-1.054.856-1.91 1.91-1.91 1.054 0 1.91.856 1.91 1.91 0 .857-.62 1.295-.93 1.505-.206.138-.395.286-.528.471-.15.21-.202.429-.202.654v.21c0 .14-.112.25-.25.25ZM12 14.1a.249.249 0 0 1-.25-.25c0-.134.116-.25.25-.25s.25.116.25.25c0 .138-.11.25-.25.25Z"/></svg><svg fill="none" viewBox="0 0 24 24" id="icon-income" xmlns="http://www.w3.org/2000/svg"><path d="M10.752 16.86v2.03c0 1.72-1.6 3.11-3.57 3.11-1.97 0-3.58-1.39-3.58-3.11v-2.03c0 1.72 1.6 2.94 3.58 2.94 1.97 0 3.57-1.23 3.57-2.94Z"/><path d="M10.75 14.11c0 .5-.14.96-.38 1.36-.59.97-1.8 1.58-3.2 1.58-1.4 0-2.61-.62-3.2-1.58-.24-.4-.38-.86-.38-1.36 0-.86.4-1.63 1.04-2.19.65-.57 1.54-.91 2.53-.91.99 0 1.88.35 2.53.91.66.55 1.06 1.33 1.06 2.19Z"/><path d="M10.752 14.11v2.75c0 1.72-1.6 2.94-3.57 2.94-1.97 0-3.58-1.23-3.58-2.94v-2.75c0-1.72 1.6-3.11 3.58-3.11.99 0 1.88.35 2.53.91.64.56 1.04 1.34 1.04 2.2ZM22 10.97v2.06c0 .55-.44 1-1 1.02h-1.96c-1.08 0-2.07-.79-2.16-1.87-.06-.63.18-1.22.6-1.63.37-.38.88-.6 1.44-.6H21c.56.02 1 .47 1 1.02Z"/><path d="M2 10.5v-2c0-2.72 1.64-4.62 4.19-4.94.26-.04.53-.06.81-.06h9c.26 0 .51.01.75.05C19.33 3.85 21 5.76 21 8.5v1.45h-2.08c-.56 0-1.07.22-1.44.6-.42.41-.66 1-.6 1.63.09 1.08 1.08 1.87 2.16 1.87H21v1.45c0 3-2 5-5 5h-2.5"/></svg><svg fill="none" viewBox="0 0 37 37" id="icon-logo" xmlns="http://www.w3.org/2000/svg"><g fill="#000"><path d="M18.5 34.888c-1.033 0-2.081-.232-2.898-.71l-8.48-4.887c-3.452-2.328-3.668-2.682-3.668-6.336v-8.91c0-3.655.2-4.01 3.592-6.306l8.54-4.933c1.62-.94 4.163-.94 5.782 0l8.51 4.902c3.453 2.328 3.669 2.682 3.669 6.336v8.896c0 3.653-.2 4.008-3.592 6.305l-8.541 4.933c-.833.478-1.88.71-2.914.71Zm0-30.464c-.647 0-1.28.124-1.726.386l-8.48 4.902c-2.512 1.696-2.512 1.696-2.512 4.332v8.896c0 2.636 0 2.636 2.574 4.378l8.418 4.856c.91.524 2.559.524 3.468 0l8.48-4.902c2.497-1.696 2.497-1.696 2.497-4.332v-8.896c0-2.636 0-2.636-2.575-4.378L20.227 4.81c-.447-.262-1.08-.386-1.727-.386Z"/><path d="M18.5 24.281a5.783 5.783 0 0 1-5.781-5.781 5.783 5.783 0 0 1 5.781-5.781 5.783 5.783 0 0 1 5.781 5.781 5.783 5.783 0 0 1-5.781 5.781Zm0-9.25a3.474 3.474 0 0 0-3.469 3.469 3.474 3.474 0 0 0 3.469 3.469 3.474 3.474 0 0 0 3.469-3.469 3.474 3.474 0 0 0-3.469-3.469Z"/></g></svg><svg viewBox="0 0 32 32" id="icon-menu" xmlns="http://www.w3.org/2000/svg"><path fill="#5685ff" d="M4 24h24v-2.667H4V24zm0-6.667h24v-2.667H4v2.667zM4 8v2.667h24V8H4z"/></svg><svg fill="none" viewBox="0 0 24 24" id="icon-product" xmlns="http://www.w3.org/2000/svg"><path d="M15 22.25H9c-2.658 0-4.435-.57-5.558-1.692C2.32 19.435 1.75 17.658 1.75 15V9c0-2.658.57-4.435 1.692-5.558C4.565 2.32 6.342 1.75 9 1.75h6c2.658 0 4.435.57 5.558 1.692C21.68 4.565 22.25 6.342 22.25 9v6c0 2.658-.57 4.435-1.692 5.558-1.123 1.122-2.9 1.692-5.558 1.692Zm-6-20c-2.34 0-4.076.411-5.207 1.543C2.66 4.924 2.25 6.66 2.25 9v6c0 2.34.411 4.076 1.543 5.207C4.924 21.34 6.66 21.75 9 21.75h6c2.34 0 4.076-.411 5.207-1.543C21.34 19.076 21.75 17.34 21.75 15V9c0-2.34-.411-4.076-1.543-5.207C19.076 2.66 17.34 2.25 15 2.25H9Z"/><path d="m11.873 12.548-.002-.001-5.298-3.06h-.001a.242.242 0 0 1-.093-.33l.003-.005a.243.243 0 0 1 .331-.094l.007.004 4.92 2.85.25.145.251-.145 4.89-2.83h.002a.247.247 0 0 1 .334.086c.067.118.017.28-.084.338h-.003l-5.253 3.037a.29.29 0 0 1-.126.037.247.247 0 0 1-.128-.032Z"/><path d="M12 18.02a.256.256 0 0 1-.25-.25v-5.44c0-.134.116-.25.25-.25s.25.116.25.25v5.44c0 .134-.116.25-.25.25Z"/><path d="M7.433 16.153h-.001c-.385-.213-.75-.59-1.02-1.052-.27-.46-.422-.967-.422-1.411V10.3c0-.437.153-.94.425-1.403.271-.462.638-.843 1.02-1.061l3.198-1.779c.77-.426 1.965-.426 2.735 0l3.2 1.78c.386.213.75.59 1.02 1.052.27.46.422.967.422 1.41v3.39c0 .438-.153.941-.425 1.404-.27.461-.637.843-1.02 1.061l-3.198 1.779-.003.002c-.367.207-.847.315-1.364.315-.51 0-.993-.115-1.369-.318l-3.198-1.78ZM12 6.25c-.376 0-.791.066-1.124.254L7.679 8.282h-.001c-.35.193-.639.53-.838.87-.2.34-.35.756-.35 1.148v3.39c0 .396.15.812.35 1.152.2.34.49.673.838.865h.001l3.195 1.778.002.001c.33.186.747.259 1.124.259.377 0 .795-.073 1.125-.259h.001l3.196-1.778c.35-.194.64-.53.838-.87.2-.34.35-.756.35-1.148V10.3c0-.397-.15-.812-.35-1.152-.2-.34-.49-.674-.837-.866h-.002l-3.195-1.777-.001-.001c-.333-.188-.748-.254-1.125-.254Z"/></svg><svg fill="none" viewBox="0 0 24 24" id="icon-promote" xmlns="http://www.w3.org/2000/svg"><path d="m10.697 21.71-.003-.003-1.52-1.52-.354.353.354-.353a1.421 1.421 0 0 0-.448-.279 1.412 1.412 0 0 0-.506-.118H6.06a1.847 1.847 0 0 1-1.85-1.85v-2.16c0-.178-.062-.371-.118-.505a1.42 1.42 0 0 0-.278-.448l-1.52-1.52-.352.352.352-.352A1.838 1.838 0 0 1 1.75 12c0-.5.189-.96.54-1.302l.004-.004 1.52-1.52c.13-.13.222-.313.278-.448.056-.134.118-.327.118-.506V6.06c0-1.023.826-1.85 1.85-1.85h2.16c.179 0 .371-.062.506-.118a1.42 1.42 0 0 0 .448-.278l1.52-1.52c.684-.685 1.928-.685 2.612 0l1.52 1.52.349-.349-.349.349c.13.13.313.223.448.278.135.056.327.118.506.118h2.16c1.024 0 1.85.827 1.85 1.85v2.16c0 .18.062.372.118.506.056.135.149.318.278.448l1.52 1.52c.348.348.544.811.544 1.306 0 .5-.19.96-.54 1.303l-.004.004-1.52 1.52a1.42 1.42 0 0 0-.278.447 1.41 1.41 0 0 0-.118.506v2.16c0 1.024-.826 1.85-1.85 1.85h-2.16c-.179 0-.371.063-.506.118a1.422 1.422 0 0 0-.448.279l-1.52 1.52-.003.004c-.343.35-.803.54-1.303.54-.5 0-.96-.19-1.303-.54Zm9.137-12.183-.354.353.354-.353c-.307-.307-.544-.88-.544-1.307V6.06a1.35 1.35 0 0 0-1.35-1.35h-2.16c-.427 0-1-.237-1.306-.543l-1.52-1.52L12.6 3l.354-.353a1.37 1.37 0 0 0-1.908 0L11.4 3l-.354-.353-1.52 1.52.354.353-.354-.353c-.306.306-.88.543-1.306.543H6.06a1.35 1.35 0 0 0-1.35 1.35v2.16c0 .427-.237 1-.544 1.307l-1.52 1.52A1.339 1.339 0 0 0 2.25 12c0 .366.145.703.396.954l1.52 1.52.354-.354-.354.354c.307.306.544.88.544 1.306v2.16c0 .746.604 1.35 1.35 1.35h2.16c.427 0 1 .237 1.306.544l.354-.354-.354.354 1.52 1.52a1.37 1.37 0 0 0 1.908 0l1.52-1.52c.306-.307.88-.544 1.306-.544h2.16a1.35 1.35 0 0 0 1.35-1.35v-2.16c0-.426.237-1 .544-1.306l1.52-1.52A1.34 1.34 0 0 0 21.75 12c0-.366-.145-.702-.396-.953l-1.52-1.52Z"/><path d="M15 15.5a.505.505 0 0 1-.51-.5c0-.274.226-.5.5-.5s.5.226.5.5c0 .28-.223.5-.49.5ZM9.01 9.5A.505.505 0 0 1 8.5 9c0-.274.226-.5.5-.5s.5.226.5.5c0 .28-.223.5-.49.5ZM9.176 15.176l.353.354-.353-.354a.242.242 0 0 1-.177.073.242.242 0 0 1-.176-.073.255.255 0 0 1 0-.353l6-6a.255.255 0 0 1 .353 0 .255.255 0 0 1 0 .353l-6 6Z"/></svg><svg fill="none" viewBox="0 0 24 24" id="icon-search" xmlns="http://www.w3.org/2000/svg"><g stroke="#7E7E7E" stroke-width="2" stroke-linecap="round" stroke-linejoin="round"><path d="M11 19a8 8 0 1 0 0-16 8 8 0 0 0 0 16ZM21 21l-4.35-4.35"/></g></svg></svg>